# xmcd CD database file generated by OrangeCD 5.9
#
# Track frame offsets:
#	150
#	10249
#	18947
#	33163
#	43521
#	55191
#	65551
#	80920
#	90795
#	103205
#	113058
#	125454
#	136412
#
# Disc length: 1985 seconds
#
# Revision: 0
# Processed by: cddbd v1.5.1PL0 Copyright (c) Steve Scherf et al.
# Submitted via: OrangeCD 5.9
#
DISCID=a207bf0d
DTITLE=Amanda Daggett - Always...
DYEAR=2000
DGENRE=Country
TTITLE0=Gotta Lotta Rhythm
TTITLE1=Walkin' After Midnight
TTITLE2=You Belong To Me
TTITLE3=If You've Got Leavin' On Your Mind
TTITLE4=Crazy
TTITLE5=Strange
TTITLE6=Your Cheatin' Heart
TTITLE7=Honly Tonk Merry-Go-Round
TTITLE8=Sweet Dreams
TTITLE9=Lovesick Blues
TTITLE10=So Wrong
TTITLE11=I Fall To Pieces
TTITLE12=Bill Bailey
EXTD=
EXTT0=
EXTT1=
EXTT2=
EXTT3=
EXTT4=
EXTT5=
EXTT6=
EXTT7=
EXTT8=
EXTT9=
EXTT10=
EXTT11=
EXTT12=
PLAYORDER=
